<svg xmlns="http://www.w3.org/2000/svg" xmlns:xlink="http://www.w3.org/1999/xlink" width="127mm" height="82.55mm" viewBox="4020.5 3408 200 130"><title></title><style type="text/css">
*[layerid="1"] {stroke:#FF0000;fill:#FF0000;}
*[layerid="2"] {stroke:#0000FF;fill:#0000FF;}
*[layerid="3"] {stroke:#FFCC00;fill:#FFCC00;}
*[layerid="4"] {stroke:#66CC33;fill:#66CC33;}
*[layerid="5"] {stroke:#808080;fill:#808080;}
*[layerid="6"] {stroke:#800000;fill:#800000;}
*[layerid="7"] {stroke:#800080;fill:#800080;stroke-opacity:0.7;fill-opacity:0.7;}
*[layerid="8"] {stroke:#AA00FF;fill:#AA00FF;stroke-opacity:0.7;fill-opacity:0.7;}
*[layerid="9"] {stroke:#6464FF;fill:#6464FF;}
*[layerid="10"] {stroke:#FF00FF;fill:#FF00FF;}
*[layerid="11"] {stroke:#C0C0C0;fill:#C0C0C0;}
*[layerid="12"] {stroke:#FFFFFF;fill:#FFFFFF;}
*[layerid="13"] {stroke:#33CC99;fill:#33CC99;}
*[layerid="14"] {stroke:#5555FF;fill:#5555FF;}
*[layerid="15"] {stroke:#F022F0;fill:#F022F0;}
*[layerid="19"] {stroke:#66CCFF;fill:#66CCFF;}
*[layerid="21"] {stroke:#999966;fill:#999966;}
*[layerid="22"] {stroke:#008000;fill:#008000;}
*[layerid="23"] {stroke:#00FF00;fill:#00FF00;}
*[layerid="24"] {stroke:#BC8E00;fill:#BC8E00;}
*[layerid="25"] {stroke:#70DBFA;fill:#70DBFA;}
*[layerid="26"] {stroke:#00CC66;fill:#00CC66;}
*[layerid="27"] {stroke:#9966FF;fill:#9966FF;}
*[layerid="28"] {stroke:#800080;fill:#800080;}
*[layerid="29"] {stroke:#008080;fill:#008080;}
*[layerid="30"] {stroke:#15935F;fill:#15935F;}
*[layerid="31"] {stroke:#000080;fill:#000080;}
*[layerid="32"] {stroke:#00B400;fill:#00B400;}
*[layerid="33"] {stroke:#2E4756;fill:#2E4756;}
*[layerid="34"] {stroke:#99842F;fill:#99842F;}
*[layerid="35"] {stroke:#FFFFAA;fill:#FFFFAA;}
*[layerid="36"] {stroke:#99842F;fill:#99842F;}
*[layerid="37"] {stroke:#2E4756;fill:#2E4756;}
*[layerid="38"] {stroke:#3535FF;fill:#3535FF;}
*[layerid="39"] {stroke:#8000BC;fill:#8000BC;}
*[layerid="40"] {stroke:#43AE5F;fill:#43AE5F;}
*[layerid="41"] {stroke:#C3ECCE;fill:#C3ECCE;}
*[layerid="42"] {stroke:#728978;fill:#728978;}
*[layerid="43"] {stroke:#39503F;fill:#39503F;}
*[layerid="44"] {stroke:#0C715D;fill:#0C715D;}
*[layerid="45"] {stroke:#5A8A80;fill:#5A8A80;}
*[layerid="46"] {stroke:#2B937E;fill:#2B937E;}
*[layerid="47"] {stroke:#23999D;fill:#23999D;}
*[layerid="48"] {stroke:#45B4E3;fill:#45B4E3;}
*[layerid="49"] {stroke:#215DA1;fill:#215DA1;}
*[layerid="50"] {stroke:#4564D7;fill:#4564D7;}
*[layerid="51"] {stroke:#6969E9;fill:#6969E9;}
*[layerid="52"] {stroke:#9069E9;fill:#9069E9;}
*[layerid="99"] {stroke:#00CCCC;fill:#00CCCC;stroke-opacity:0.6;fill-opacity:0.6;}
*[layerid="100"] {stroke:#CC9999;fill:#CC9999;}
*[layerid="101"] {stroke:#66FFCC;fill:#66FFCC;}
*[layerid="Hole"] {stroke:#222222;fill:#222222;}
*[layerid="DRCError"] {stroke:#FAD609;fill:#FAD609;}
*[fill="none"] {fill: none;}
*[stroke="none"] {stroke: none;}
path, polyline, polygon, line {stroke-linecap:round;}
g[c_partid="part_pad"][layerid="1"] ellipse:not([c_etype="pad_outer"]) {fill:#FF0000;}
g[c_partid="part_pad"][layerid="1"] polygon:not([c_etype="pad_outer"]) {fill:#FF0000;}
g[c_partid="part_pad"][layerid="1"] polyline:not([c_etype="pad_outer"]) {stroke:#FF0000;}
g[c_partid="part_pad"][layerid="2"] ellipse:not([c_etype="pad_outer"]) {fill:#0000FF;}
g[c_partid="part_pad"][layerid="2"] polygon:not([c_etype="pad_outer"]) {fill:#0000FF;}
g[c_partid="part_pad"][layerid="2"] polyline:not([c_etype="pad_outer"]) {stroke:#0000FF;}
g[c_partid="part_pad"][layerid="11"] ellipse:not([c_etype="pad_outer"]) {fill:#C0C0C0;}
g[c_partid="part_pad"][layerid="11"] polygon:not([c_etype="pad_outer"]) {fill:#C0C0C0;}
g[c_partid="part_pad"][layerid="11"] polyline:not([c_etype="pad_outer"]) {stroke:#C0C0C0;}
g[c_partid="part_pad"][layerid="11"] circle {fill:#222222;}
g[c_partid="part_pad"][layerid="11"] > polyline:nth-of-type(2) {stroke:#222222;}
g[c_partid="part_pad"][layerid="11"][c_shape="ELLIPSE"]  polyline:nth-last-of-type(1) {stroke:#222222;}
g[c_partid="part_pad"][layerid="11"][c_shape="RECT"]  polyline:nth-last-of-type(1) {stroke:#222222;}
g[c_partid="part_pad"][layerid="11"][c_shape="POLYGON"]  polyline:nth-last-of-type(1) {stroke:#222222;}
g[c_partid="part_via"] > * + circle, #gCurParts g[c_partid="part_via"] > * + circle {fill:#222222;}
g[c_partid="part_pad"] > polygon[c_etype="pad_outer"], #gCurParts g[c_partid="part_pad"] > polygon[c_etype="pad_outer"] {stroke-linejoin: miter;stroke-miterlimit: 100;}
g[c_partid="part_hole"] > circle {fill: #222222;}path, polyline, polygon {stroke-linejoin:round;}
rect, circle, ellipse, polyline, line, polygon, path {shape-rendering:crispEdges;}
</style>
<rect x="4020.5" y="3408" width="200" height="130" fill="#000000" stroke="none"/><polyline points="4190.5 3466.822 4190.5 3497.216 4170 3517.716" stroke-width="3.937"  stroke-linecap="round" fill="none" layerid="1" net="1" id="gge343" locked="0" /><polyline points="4169.5005 3510.5117 4170 3511.0112 4170 3517.716" stroke-width="3.937"  stroke-linecap="round" fill="none" layerid="1" net="1" id="gge681" locked="0" /><polyline points="4170 3482.284 4169.716 3482 4154 3482 4154 3449.5" stroke-width="3.937"  stroke-linecap="round" fill="none" layerid="1" net="1" id="gge565" locked="0" /><polyline points="4169.5005 3489.4887 4170 3488.9892 4170 3482.284" stroke-width="3.937"  stroke-linecap="round" fill="none" layerid="1" net="1" id="gge682" locked="0" /><polyline points="4045.5 3493.822 4044.5 3494.822 4044.5 3517.5" stroke-width="3.937"  stroke-linecap="round" fill="none" layerid="1" net="1" id="gge355" locked="0" /><polyline points="4170 3517.716 4169.784 3517.5 4044.5 3517.5" stroke-width="3.937"  stroke-linecap="round" fill="none" layerid="1" net="1" id="gge344" locked="0" /><polyline points="4133.5 3494.322 4133.0253 3494.7967 4133.0253 3517.5" stroke-width="3.937"  stroke-linecap="round" fill="none" layerid="1" net="1" id="gge352" locked="0" /><polyline points="4133.5 3482.68 4133.43 3444.5" stroke-width="3.937"  stroke-linecap="round" fill="none" layerid="1" net="1" id="gge359" locked="0" /><polyline points="4100.5 3468.5 4100.5 3483 4100.678 3483.178 4106 3483.178" stroke-width="3.937"  stroke-linecap="round" fill="none" layerid="1" net="1" id="gge567" locked="0" /><polyline points="4045.5 3482.178 4045 3481.678 4045 3469" stroke-width="3.937"  stroke-linecap="round" fill="none" layerid="1" net="1" id="gge489" locked="0" /><polyline points="4205.5 3424.5 4205 3424 4154 3424" stroke-width="3.937"  stroke-linecap="round" fill="none" layerid="1" net="1" id="gge484" locked="0" /><polyline points="4205.5 3434 4205 3434.5 4164.65 3434.5" stroke-width="3.937"  stroke-linecap="round" fill="none" layerid="1" net="1" id="gge347" locked="0" /><polyline points="4190.5 3455.178 4190.6253 3455.0527 4190.6253 3434.5" stroke-width="3.937"  stroke-linecap="round" fill="none" layerid="1" net="1" id="gge348" locked="0" /><polyline points="4143.35 3439.5 4143.35 3434.5" stroke-width="3.937"  stroke-linecap="round" fill="none" layerid="1" net="1" id="gge349" locked="0" /><polyline points="4143.35 3434.5 4142.9365 3434.9135 4067.5 3434.9135" stroke-width="3.937"  stroke-linecap="round" fill="none" layerid="1" net="1" id="gge350" locked="0" /><polyline points="4067.5 3449.09 4075.03 3449.03 4075.03 3467" stroke-width="3.937"  stroke-linecap="round" fill="none" layerid="1" net="1" id="gge566" locked="0" /><polyline points="4075 3482.18 4075.03 3467" stroke-width="3.937"  stroke-linecap="round" fill="none" layerid="1" net="1" id="gge378" locked="0" /><polyline points="4045.5 3482.178 4045.678 3482 4060 3482 4060 3493.5 4060.322 3493.822 4075 3493.822" stroke-width="3.937"  stroke-linecap="round" fill="none" layerid="1" net="1" id="gge384" locked="0" /><polyline points="4075 3482.178 4075.178 3482 4090 3482 4090 3495 4090.178 3494.822 4106 3494.822" stroke-width="3.937"  stroke-linecap="round" fill="none" layerid="1" net="1" id="gge437" locked="0" /><polyline points="4118 3457.77 4116.77 3459 4101 3459" stroke-width="3.937"  stroke-linecap="round" fill="none" layerid="1" net="1" id="gge439" locked="0" /><polyline points="4133.43 3444.5 4143.35 3444.5" stroke-width="3.937"  stroke-linecap="round" fill="none" layerid="1" net="1" id="gge683" locked="0" /><polyline points="4133.43 3444.5 4132.7 3445.23 4118 3445.23" stroke-width="3.937"  stroke-linecap="round" fill="none" layerid="1" net="1" id="gge684" locked="0" /><polyline points="4143.35 3449.5 4154 3449.5 4154 3424 4045 3424 4045 3469" stroke-width="3.937"  stroke-linecap="round" fill="none" layerid="1" net="1" id="gge458" locked="0" /><g c_partid="part_pad" c_etype="pinpart" c_origin="4169.5,3489.488" layerid="1" number="2" net="1" plated ="Y"  id="gge596" locked="0" c_rotation="90" c_width="13.7795" c_height="4.7244" title="1" c_shape="RECT" pasteexpansion="0.0000" solderexpansion="0.2000"><polygon  c_etype="pad_shell" points="4167.1378 3496.3781 4167.1378 3482.5985 4171.8622 3482.5985 4171.8622 3496.3781" layerid="1" stroke-width="0" /><circle c_etype="pad_hole" cx="4169.5" cy="3489.4882" r="0" layerid="1" stroke-width="0"/></g><g c_partid="part_pad" c_etype="pinpart" c_origin="4169.5,3510.512" layerid="1" number="1" net="1" plated ="Y"  id="gge601" locked="0" c_rotation="90" c_width="13.7795" c_height="4.7244" title="1" c_shape="RECT" pasteexpansion="0.0000" solderexpansion="0.2000"><polygon  c_etype="pad_shell" points="4167.1378 3517.4015 4167.1378 3503.6219 4171.8622 3503.6219 4171.8622 3517.4015" layerid="1" stroke-width="0" /><circle c_etype="pad_hole" cx="4169.5" cy="3510.5118" r="0" layerid="1" stroke-width="0"/></g><g c_partid="part_pad" c_etype="pinpart" c_origin="4143.35,3434.5" layerid="1" number="1" net="1" plated ="Y"  id="gge636" locked="0" c_rotation="270" c_width="2.2378" c_height="7.678" title="1" c_shape="OVAL" pasteexpansion="0.0000" solderexpansion="0.2000"><polyline  c_etype="pad_shell" points="4146.0701 3434.5 4140.6299 3434.5" layerid="1" stroke-width="2.2378" /><circle c_etype="pad_hole" cx="4143.35" cy="3434.5" r="0" layerid="1" stroke-width="0"/></g><g c_partid="part_pad" c_etype="pinpart" c_origin="4143.35,3439.5" layerid="1" number="2" net="1" plated ="Y"  id="gge641" locked="0" c_rotation="270" c_width="2.2378" c_height="7.678" title="1" c_shape="OVAL" pasteexpansion="0.0000" solderexpansion="0.2000"><polyline  c_etype="pad_shell" points="4146.0701 3439.5 4140.6299 3439.5" layerid="1" stroke-width="2.2378" /><circle c_etype="pad_hole" cx="4143.35" cy="3439.5" r="0" layerid="1" stroke-width="0"/></g><g c_partid="part_pad" c_etype="pinpart" c_origin="4143.35,3444.5" layerid="1" number="3" net="1" plated ="Y"  id="gge646" locked="0" c_rotation="270" c_width="2.2378" c_height="7.678" title="1" c_shape="OVAL" pasteexpansion="0.0000" solderexpansion="0.2000"><polyline  c_etype="pad_shell" points="4146.0701 3444.5 4140.6299 3444.5" layerid="1" stroke-width="2.2378" /><circle c_etype="pad_hole" cx="4143.35" cy="3444.5" r="0" layerid="1" stroke-width="0"/></g><g c_partid="part_pad" c_etype="pinpart" c_origin="4143.35,3449.5" layerid="1" number="4" net="1" plated ="Y"  id="gge651" locked="0" c_rotation="270" c_width="2.2378" c_height="7.678" title="1" c_shape="OVAL" pasteexpansion="0.0000" solderexpansion="0.2000"><polyline  c_etype="pad_shell" points="4146.0701 3449.5 4140.6299 3449.5" layerid="1" stroke-width="2.2378" /><circle c_etype="pad_hole" cx="4143.35" cy="3449.5" r="0" layerid="1" stroke-width="0"/></g><g c_partid="part_pad" c_etype="pinpart" c_origin="4164.65,3434.5" layerid="1" number="8" net="1" plated ="Y"  id="gge656" locked="0" c_rotation="270" c_width="2.2378" c_height="7.678" title="1" c_shape="OVAL" pasteexpansion="0.0000" solderexpansion="0.2000"><polyline  c_etype="pad_shell" points="4167.3701 3434.5 4161.9299 3434.5" layerid="1" stroke-width="2.2378" /><circle c_etype="pad_hole" cx="4164.65" cy="3434.5" r="0" layerid="1" stroke-width="0"/></g><g c_partid="part_pad" c_etype="pinpart" c_origin="4164.65,3439.5" layerid="1" number="7" net="" plated ="Y"  id="gge661" locked="0" c_rotation="270" c_width="2.2378" c_height="7.678" title="" c_shape="OVAL" pasteexpansion="0.0000" solderexpansion="0.2000"><polyline  c_etype="pad_shell" points="4167.3701 3439.5 4161.9299 3439.5" layerid="1" stroke-width="2.2378" /><circle c_etype="pad_hole" cx="4164.65" cy="3439.5" r="0" layerid="1" stroke-width="0"/></g><g c_partid="part_pad" c_etype="pinpart" c_origin="4164.65,3444.5" layerid="1" number="6" net="" plated ="Y"  id="gge666" locked="0" c_rotation="270" c_width="2.2378" c_height="7.678" title="" c_shape="OVAL" pasteexpansion="0.0000" solderexpansion="0.2000"><polyline  c_etype="pad_shell" points="4167.3701 3444.5 4161.9299 3444.5" layerid="1" stroke-width="2.2378" /><circle c_etype="pad_hole" cx="4164.65" cy="3444.5" r="0" layerid="1" stroke-width="0"/></g><g c_partid="part_pad" c_etype="pinpart" c_origin="4164.65,3449.5" layerid="1" number="5" net="" plated ="Y"  id="gge671" locked="0" c_rotation="270" c_width="2.2378" c_height="7.678" title="" c_shape="OVAL" pasteexpansion="0.0000" solderexpansion="0.2000"><polyline  c_etype="pad_shell" points="4167.3701 3449.5 4161.9299 3449.5" layerid="1" stroke-width="2.2378" /><circle c_etype="pad_hole" cx="4164.65" cy="3449.5" r="0" layerid="1" stroke-width="0"/></g><g c_partid="part_pad" c_etype="pinpart" c_origin="4118,3457.77" layerid="1" number="2" net="1" plated ="Y"  id="gge25" locked="0" c_rotation="270" c_width="5.8465" c_height="6.8031" title="1" c_shape="RECT" pasteexpansion="-393.7008" solderexpansion="0.2000"><polygon  c_etype="pad_shell" points="4114.5984 3454.8465 4121.4016 3454.8465 4121.4016 3460.6929 4114.5984 3460.6929" layerid="1" stroke-width="0" /><circle c_etype="pad_hole" cx="4118" cy="3457.7697" r="0" layerid="1" stroke-width="0"/></g><g c_partid="part_pad" c_etype="pinpart" c_origin="4118,3445.23" layerid="1" number="1" net="1" plated ="Y"  id="gge30" locked="0" c_rotation="270" c_width="5.8465" c_height="6.8031" title="1" c_shape="RECT" pasteexpansion="-393.7008" solderexpansion="0.2000"><polygon  c_etype="pad_shell" points="4114.5984 3448.1535 4121.4016 3448.1535 4121.4016 3442.3071 4114.5984 3442.3071" layerid="1" stroke-width="0" /><circle c_etype="pad_hole" cx="4118" cy="3445.2303" r="0" layerid="1" stroke-width="0"/></g><g c_partid="part_pad" c_etype="pinpart" c_origin="4067.5,3449.087" layerid="1" number="2" net="1" plated ="Y"  id="gge59" locked="0" c_rotation="270" c_width="10.2362" c_height="4.3307" title="1" c_shape="RECT" pasteexpansion="0.0000" solderexpansion="0.2000"><polygon  c_etype="pad_shell" points="4069.6654 3443.9685 4069.6654 3454.2047 4065.3347 3454.2047 4065.3347 3443.9685" layerid="1" stroke-width="0" /><circle c_etype="pad_hole" cx="4067.4999" cy="3449.0865" r="0" layerid="1" stroke-width="0"/></g><g c_partid="part_pad" c_etype="pinpart" c_origin="4067.5,3434.913" layerid="1" number="1" net="1" plated ="Y"  id="gge64" locked="0" c_rotation="270" c_width="10.2362" c_height="4.3307" title="1" c_shape="RECT" pasteexpansion="0.0000" solderexpansion="0.2000"><polygon  c_etype="pad_shell" points="4069.6654 3429.7953 4069.6654 3440.0315 4065.3347 3440.0315 4065.3347 3429.7953" layerid="1" stroke-width="0" /><circle c_etype="pad_hole" cx="4067.4999" cy="3434.9137" r="0" layerid="1" stroke-width="0"/></g><g c_partid="part_pad" c_etype="pinpart" c_origin="4045.5,3493.822" layerid="1" number="2" net="1" plated ="Y"  id="gge115" locked="0" c_rotation="270" c_width="4.754" c_height="6.6969" title="1" c_shape="RECT" pasteexpansion="-393.7008" solderexpansion="0.2000"><polygon  c_etype="pad_shell" points="4042.1516 3491.4449 4048.8484 3491.4449 4048.8484 3496.1989 4042.1516 3496.1989" layerid="1" stroke-width="0" /><circle c_etype="pad_hole" cx="4045.5" cy="3493.8219" r="0" layerid="1" stroke-width="0"/></g><g c_partid="part_pad" c_etype="pinpart" c_origin="4045.5,3482.178" layerid="1" number="1" net="1" plated ="Y"  id="gge120" locked="0" c_rotation="270" c_width="4.754" c_height="6.6969" title="1" c_shape="RECT" pasteexpansion="-393.7008" solderexpansion="0.2000"><polygon  c_etype="pad_shell" points="4042.1516 3484.5551 4048.8484 3484.5551 4048.8484 3479.8011 4042.1516 3479.8011" layerid="1" stroke-width="0" /><circle c_etype="pad_hole" cx="4045.5" cy="3482.1781" r="0" layerid="1" stroke-width="0"/></g><g c_partid="part_pad" c_etype="pinpart" c_origin="4190.5,3466.822" layerid="1" number="2" net="1" plated ="Y"  id="gge141" locked="0" c_rotation="270" c_width="4.754" c_height="6.6969" title="1" c_shape="RECT" pasteexpansion="-393.7008" solderexpansion="0.2000"><polygon  c_etype="pad_shell" points="4187.1516 3464.4449 4193.8484 3464.4449 4193.8484 3469.1989 4187.1516 3469.1989" layerid="1" stroke-width="0" /><circle c_etype="pad_hole" cx="4190.5" cy="3466.8219" r="0" layerid="1" stroke-width="0"/></g><g c_partid="part_pad" c_etype="pinpart" c_origin="4190.5,3455.178" layerid="1" number="1" net="1" plated ="Y"  id="gge146" locked="0" c_rotation="270" c_width="4.754" c_height="6.6969" title="1" c_shape="RECT" pasteexpansion="-393.7008" solderexpansion="0.2000"><polygon  c_etype="pad_shell" points="4187.1516 3457.5551 4193.8484 3457.5551 4193.8484 3452.8011 4187.1516 3452.8011" layerid="1" stroke-width="0" /><circle c_etype="pad_hole" cx="4190.5" cy="3455.1781" r="0" layerid="1" stroke-width="0"/></g><g c_partid="part_pad" c_etype="pinpart" c_origin="4075,3493.822" layerid="1" number="2" net="1" plated ="Y"  id="gge167" locked="0" c_rotation="270" c_width="4.754" c_height="6.6969" title="1" c_shape="RECT" pasteexpansion="-393.7008" solderexpansion="0.2000"><polygon  c_etype="pad_shell" points="4071.6516 3491.4449 4078.3484 3491.4449 4078.3484 3496.1989 4071.6516 3496.1989" layerid="1" stroke-width="0" /><circle c_etype="pad_hole" cx="4075" cy="3493.8219" r="0" layerid="1" stroke-width="0"/></g><g c_partid="part_pad" c_etype="pinpart" c_origin="4075,3482.178" layerid="1" number="1" net="1" plated ="Y"  id="gge172" locked="0" c_rotation="270" c_width="4.754" c_height="6.6969" title="1" c_shape="RECT" pasteexpansion="-393.7008" solderexpansion="0.2000"><polygon  c_etype="pad_shell" points="4071.6516 3484.5551 4078.3484 3484.5551 4078.3484 3479.8011 4071.6516 3479.8011" layerid="1" stroke-width="0" /><circle c_etype="pad_hole" cx="4075" cy="3482.1781" r="0" layerid="1" stroke-width="0"/></g><g c_partid="part_pad" c_etype="pinpart" c_origin="4106,3483.178" layerid="1" number="2" net="1" plated ="Y"  id="gge193" locked="0" c_rotation="90" c_width="4.754" c_height="6.6969" title="1" c_shape="RECT" pasteexpansion="-393.7008" solderexpansion="0.2000"><polygon  c_etype="pad_shell" points="4109.3484 3485.5551 4102.6516 3485.5551 4102.6516 3480.8011 4109.3484 3480.8011" layerid="1" stroke-width="0" /><circle c_etype="pad_hole" cx="4106" cy="3483.1781" r="0" layerid="1" stroke-width="0"/></g><g c_partid="part_pad" c_etype="pinpart" c_origin="4106,3494.822" layerid="1" number="1" net="1" plated ="Y"  id="gge198" locked="0" c_rotation="90" c_width="4.754" c_height="6.6969" title="1" c_shape="RECT" pasteexpansion="-393.7008" solderexpansion="0.2000"><polygon  c_etype="pad_shell" points="4109.3484 3492.4449 4102.6516 3492.4449 4102.6516 3497.1989 4109.3484 3497.1989" layerid="1" stroke-width="0" /><circle c_etype="pad_hole" cx="4106" cy="3494.8219" r="0" layerid="1" stroke-width="0"/></g><g c_partid="part_pad" c_etype="pinpart" c_origin="4133.5,3482.678" layerid="1" number="2" net="1" plated ="Y"  id="gge219" locked="0" c_rotation="90" c_width="4.754" c_height="6.6969" title="1" c_shape="RECT" pasteexpansion="-393.7008" solderexpansion="0.2000"><polygon  c_etype="pad_shell" points="4136.8484 3485.0551 4130.1516 3485.0551 4130.1516 3480.3011 4136.8484 3480.3011" layerid="1" stroke-width="0" /><circle c_etype="pad_hole" cx="4133.5" cy="3482.6781" r="0" layerid="1" stroke-width="0"/></g><g c_partid="part_pad" c_etype="pinpart" c_origin="4133.5,3494.322" layerid="1" number="1" net="1" plated ="Y"  id="gge224" locked="0" c_rotation="90" c_width="4.754" c_height="6.6969" title="1" c_shape="RECT" pasteexpansion="-393.7008" solderexpansion="0.2000"><polygon  c_etype="pad_shell" points="4136.8484 3491.9449 4130.1516 3491.9449 4130.1516 3496.6989 4136.8484 3496.6989" layerid="1" stroke-width="0" /><circle c_etype="pad_hole" cx="4133.5" cy="3494.3219" r="0" layerid="1" stroke-width="0"/></g><g c_partid="part_pad" c_etype="pinpart" c_origin="4205.5,3434" layerid="11" number="1" net="1" plated ="Y"  id="gge324" locked="0" c_rotation="0" c_width="6" c_height="6" title="1" c_shape="ELLIPSE" pasteexpansion="0" solderexpansion="0.4"><ellipse c_etype="pad_shell" cx="4205.5" cy="3434" rx="3" ry="3" layerid="11" stroke-width="0"/><circle c_etype="pad_hole" cx="4205.5" cy="3434" r="1.8" layerid="11" stroke-width="0"/></g><g c_partid="part_pad" c_etype="pinpart" c_origin="4101,3459" layerid="11" number="1" net="1" plated ="Y"  id="gge426" locked="0" c_rotation="0" c_width="6" c_height="6" title="1" c_shape="ELLIPSE" pasteexpansion="0" solderexpansion="0.4"><ellipse c_etype="pad_shell" cx="4101" cy="3459" rx="3" ry="3" layerid="11" stroke-width="0"/><circle c_etype="pad_hole" cx="4101" cy="3459" r="1.8" layerid="11" stroke-width="0"/></g><g c_partid="part_pad" c_etype="pinpart" c_origin="4100.5,3468.5" layerid="11" number="1" net="1" plated ="Y"  id="gge433" locked="0" c_rotation="0" c_width="6" c_height="6" title="1" c_shape="ELLIPSE" pasteexpansion="0" solderexpansion="0.4"><ellipse c_etype="pad_shell" cx="4100.5" cy="3468.5" rx="3" ry="3" layerid="11" stroke-width="0"/><circle c_etype="pad_hole" cx="4100.5" cy="3468.5" r="1.8" layerid="11" stroke-width="0"/></g><g c_partid="part_pad" c_etype="pinpart" c_origin="4205.5,3424.5" layerid="11" number="4" net="1" plated ="Y"  id="gge465" locked="0" c_rotation="0" c_width="6" c_height="6" title="1" c_shape="ELLIPSE" pasteexpansion="0" solderexpansion="0.4"><ellipse c_etype="pad_shell" cx="4205.5" cy="3424.5" rx="3" ry="3" layerid="11" stroke-width="0"/><circle c_etype="pad_hole" cx="4205.5" cy="3424.5" r="1.8" layerid="11" stroke-width="0"/></g><g c_partid="part_hole" c_etype="pinpart" c_shapetype="group" c_origin="4036,3522.5" layerid="11" id="gge529" locked="0" ><circle cx="4036" cy="3522.5" r="4"  stroke-width="0" /></g><g c_partid="part_hole" c_etype="pinpart" c_shapetype="group" c_origin="4204,3447" layerid="11" id="gge534" locked="0" ><circle cx="4204" cy="3447" r="4"  stroke-width="0" /></g><g c_partid="part_hole" c_etype="pinpart" c_shapetype="group" c_origin="4204.5,3522.5" layerid="11" id="gge539" locked="0" ><circle cx="4204.5" cy="3522.5" r="4"  stroke-width="0" /></g><g c_partid="part_hole" c_etype="pinpart" c_shapetype="group" c_origin="4035.5,3423.5" layerid="11" id="gge554" locked="0" ><circle cx="4035.5" cy="3423.5" r="4"  stroke-width="0" /></g><polyline points="4172.4105 3486.7889 4182.79 3486.71 4182.79 3507.8 4177.3 3513.29 4172.2 3513.2374" stroke-width="0.6"  stroke-linecap="round" fill="none" layerid="3" net="" id="gge587" locked="0" /><polyline points="4166.7138 3486.7343 4156.208 3486.708 4156.208 3507.7954 4161.7046 3513.292 4166.8 3513.292" stroke-width="0.6"  stroke-linecap="round" fill="none" layerid="3" net="" id="gge588" locked="0" /><polyline points="4148.0945 3432.1575 4151.1395 3432.1575" stroke-width="1"  stroke-linecap="round" fill="none" layerid="3" net="" id="gge625" locked="0" /><polyline points="4159.9055 3432.1575 4156.8594 3432.1575" stroke-width="1"  stroke-linecap="round" fill="none" layerid="3" net="" id="gge626" locked="0" /><polyline points="4159.9055 3432.1575 4161.5 3432.1575 4161.5 3432.5174" stroke-width="1"  stroke-linecap="round" fill="none" layerid="3" net="" id="gge627" locked="0" /><polyline points="4148.0945 3451.8425 4146.5 3451.8425 4146.5 3451.4826" stroke-width="1"  stroke-linecap="round" fill="none" layerid="3" net="" id="gge628" locked="0" /><polyline points="4148.0945 3432.1575 4146.5 3432.1575 4146.5 3432.5174" stroke-width="1"  stroke-linecap="round" fill="none" layerid="3" net="" id="gge629" locked="0" /><polyline points="4159.9055 3451.8425 4161.5 3451.8425 4161.5 3451.4826" stroke-width="1"  stroke-linecap="round" fill="none" layerid="3" net="" id="gge630" locked="0" /><polyline points="4159.9055 3451.8425 4148.0945 3451.8425" stroke-width="1"  stroke-linecap="round" fill="none" layerid="3" net="" id="gge631" locked="0" /><polyline points="4122.3016 3460.9929 4122.3016 3455.1465" stroke-width="0.6"  stroke-linecap="round" fill="none" layerid="3" net="" id="gge7" locked="0" /><polyline points="4113.6984 3455.1465 4113.6984 3460.9929" stroke-width="0.6"  stroke-linecap="round" fill="none" layerid="3" net="" id="gge8" locked="0" /><polyline points="4114.2984 3461.5929 4121.7016 3461.5929" stroke-width="0.6"  stroke-linecap="round" fill="none" layerid="3" net="" id="gge9" locked="0" /><polyline points="4122.3016 3442.0071 4122.3016 3447.8535" stroke-width="0.6"  stroke-linecap="round" fill="none" layerid="3" net="" id="gge10" locked="0" /><polyline points="4113.6984 3447.8535 4113.6984 3442.0071" stroke-width="0.6"  stroke-linecap="round" fill="none" layerid="3" net="" id="gge11" locked="0" /><polyline points="4114.2984 3441.4071 4121.7016 3441.4071" stroke-width="0.6"  stroke-linecap="round" fill="none" layerid="3" net="" id="gge12" locked="0" /><polyline points="4064.6255 3433.273 4062.4205 3433.273 4062.42 3433.2725" stroke-width="0.5984"  stroke-linecap="round" fill="none" layerid="3" net="" id="gge45" locked="0" /><polyline points="4072.5784 3433.273 4070.3746 3433.273" stroke-width="0.5984"  stroke-linecap="round" fill="none" layerid="3" net="" id="gge46" locked="0" /><polyline points="4070.3746 3450.8025 4076.2644 3450.8025" stroke-width="0.5984"  stroke-linecap="round" fill="none" layerid="3" net="" id="gge47" locked="0" /><polyline points="4058.74 3450.8025 4064.6255 3450.8025" stroke-width="0.5984"  stroke-linecap="round" fill="none" layerid="3" net="" id="gge48" locked="0" /><polyline points="4076.2644 3450.8021 4076.2644 3436.9588 4072.5784 3433.273" stroke-width="0.6"  stroke-linecap="round" fill="none" layerid="3" net="" id="gge49" locked="0" /><polyline points="4058.74 3450.8025 4058.74 3436.9625 4062.42 3433.2725" stroke-width="0.6"  stroke-linecap="round" fill="none" layerid="3" net="" id="gge50" locked="0" /><polyline points="4041.2516 3491.7449 4041.2516 3497.0989 4049.7484 3497.0989 4049.7484 3491.7449" stroke-width="0.6"  stroke-linecap="round" fill="none" layerid="3" net="" id="gge109" locked="0" /><polyline points="4041.2516 3484.2551 4041.2516 3478.9011 4049.7484 3478.9011 4049.7484 3484.2551" stroke-width="0.6"  stroke-linecap="round" fill="none" layerid="3" net="" id="gge110" locked="0" /><polyline points="4186.2516 3464.7449 4186.2516 3470.0989 4194.7484 3470.0989 4194.7484 3464.7449" stroke-width="0.6"  stroke-linecap="round" fill="none" layerid="3" net="" id="gge135" locked="0" /><polyline points="4186.2516 3457.2551 4186.2516 3451.9011 4194.7484 3451.9011 4194.7484 3457.2551" stroke-width="0.6"  stroke-linecap="round" fill="none" layerid="3" net="" id="gge136" locked="0" /><polyline points="4070.7516 3491.7449 4070.7516 3497.0989 4079.2484 3497.0989 4079.2484 3491.7449" stroke-width="0.6"  stroke-linecap="round" fill="none" layerid="3" net="" id="gge161" locked="0" /><polyline points="4070.7516 3484.2551 4070.7516 3478.9011 4079.2484 3478.9011 4079.2484 3484.2551" stroke-width="0.6"  stroke-linecap="round" fill="none" layerid="3" net="" id="gge162" locked="0" /><polyline points="4110.2484 3485.2551 4110.2484 3479.9011 4101.7516 3479.9011 4101.7516 3485.2551" stroke-width="0.6"  stroke-linecap="round" fill="none" layerid="3" net="" id="gge187" locked="0" /><polyline points="4110.2484 3492.7449 4110.2484 3498.0989 4101.7516 3498.0989 4101.7516 3492.7449" stroke-width="0.6"  stroke-linecap="round" fill="none" layerid="3" net="" id="gge188" locked="0" /><polyline points="4137.7484 3484.7551 4137.7484 3479.4011 4129.2516 3479.4011 4129.2516 3484.7551" stroke-width="0.6"  stroke-linecap="round" fill="none" layerid="3" net="" id="gge213" locked="0" /><polyline points="4137.7484 3492.2449 4137.7484 3497.5989 4129.2516 3497.5989 4129.2516 3492.2449" stroke-width="0.6"  stroke-linecap="round" fill="none" layerid="3" net="" id="gge214" locked="0" /><g c_partid="part_pcbtext" c_etype="pinpart" c_origin="4187,3438" c_rotation="0" c_mirror="0" id="gge338" locked="0" layerid="3" c_shapetype="group" ><path c_fontsize="8" c_fontfamily="" c_text="9V" d="M 4191.73 3432.47 L 4191.36 3433.56 L 4190.64 3434.29 L 4189.55 3434.65 L 4189.18 3434.65 L 4188.09 3434.29 L 4187.36 3433.56 L 4187 3432.47 L 4187 3432.11 L 4187.36 3431.02 L 4188.09 3430.29 L 4189.18 3429.93 L 4189.55 3429.93 L 4190.64 3430.29 L 4191.36 3431.02 L 4191.73 3432.47 L 4191.73 3434.29 L 4191.36 3436.11 L 4190.64 3437.2 L 4189.55 3437.56 L 4188.82 3437.56 L 4187.73 3437.2 L 4187.36 3436.47 M 4194.13 3429.93 L 4197.04 3437.56 M 4199.95 3429.93 L 4197.04 3437.56" fill="none"  stroke-width="0.8"  /></g><g c_partid="part_pcbtext" c_etype="pinpart" c_origin="4091.5,3458" c_rotation="0" c_mirror="0" id="gge447" locked="0" layerid="3" c_shapetype="group" ><path c_fontsize="8" c_fontfamily="" c_text="IN" d="M 4091.5 3449.93 L 4091.5 3457.56 M 4093.9 3449.93 L 4093.9 3457.56 M 4093.9 3449.93 L 4098.99 3457.56 M 4098.99 3449.93 L 4098.99 3457.56" fill="none"  stroke-width="0.8"  /></g><g c_partid="part_pcbtext" c_etype="pinpart" c_origin="4077.5,3478" c_rotation="0" c_mirror="0" id="gge455" locked="0" layerid="3" c_shapetype="group" ><path c_fontsize="8" c_fontfamily="" c_text="OUT" d="M 4079.68 3469.93 L 4078.95 3470.29 L 4078.23 3471.02 L 4077.86 3471.75 L 4077.5 3472.84 L 4077.5 3474.65 L 4077.86 3475.75 L 4078.23 3476.47 L 4078.95 3477.2 L 4079.68 3477.56 L 4081.14 3477.56 L 4081.86 3477.2 L 4082.59 3476.47 L 4082.95 3475.75 L 4083.32 3474.65 L 4083.32 3472.84 L 4082.95 3471.75 L 4082.59 3471.02 L 4081.86 3470.29 L 4081.14 3469.93 L 4079.68 3469.93 M 4085.72 3469.93 L 4085.72 3475.38 L 4086.08 3476.47 L 4086.81 3477.2 L 4087.9 3477.56 L 4088.63 3477.56 L 4089.72 3477.2 L 4090.45 3476.47 L 4090.81 3475.38 L 4090.81 3469.93 M 4095.75 3469.93 L 4095.75 3477.56 M 4093.21 3469.93 L 4098.3 3469.93" fill="none"  stroke-width="0.8"  /></g><g c_partid="part_pcbtext" c_etype="pinpart" c_origin="4181,3428" c_rotation="0" c_mirror="0" id="gge478" locked="0" layerid="3" c_shapetype="group" ><path c_fontsize="8" c_fontfamily="" c_text="GND" d="M 4186.45 3421.75 L 4186.09 3421.02 L 4185.36 3420.29 L 4184.64 3419.93 L 4183.18 3419.93 L 4182.45 3420.29 L 4181.73 3421.02 L 4181.36 3421.75 L 4181 3422.84 L 4181 3424.65 L 4181.36 3425.75 L 4181.73 3426.47 L 4182.45 3427.2 L 4183.18 3427.56 L 4184.64 3427.56 L 4185.36 3427.2 L 4186.09 3426.47 L 4186.45 3425.75 L 4186.45 3424.65 M 4184.64 3424.65 L 4186.45 3424.65 M 4188.85 3419.93 L 4188.85 3427.56 M 4188.85 3419.93 L 4193.95 3427.56 M 4193.95 3419.93 L 4193.95 3427.56 M 4196.35 3419.93 L 4196.35 3427.56 M 4196.35 3419.93 L 4198.89 3419.93 L 4199.98 3420.29 L 4200.71 3421.02 L 4201.07 3421.75 L 4201.44 3422.84 L 4201.44 3424.65 L 4201.07 3425.75 L 4200.71 3426.47 L 4199.98 3427.2 L 4198.89 3427.56 L 4196.35 3427.56" fill="none"  stroke-width="0.8"  /></g><g c_partid="part_pcbtext" c_etype="pinpart" c_origin="4050,3505" c_rotation="0" c_mirror="0" id="gge504" locked="0" layerid="3" c_shapetype="group" ><path c_fontsize="3.937" c_fontfamily="" c_text="Klon Buffer" d="M 4050 3501.03 L 4050 3504.79 M 4052.51 3501.03 L 4050 3503.53 M 4050.89 3502.64 L 4052.51 3504.79 M 4053.69 3501.03 L 4053.69 3504.79 M 4055.76 3502.28 L 4055.4 3502.46 L 4055.05 3502.82 L 4054.87 3503.35 L 4054.87 3503.71 L 4055.05 3504.25 L 4055.4 3504.61 L 4055.76 3504.79 L 4056.3 3504.79 L 4056.66 3504.61 L 4057.02 3504.25 L 4057.19 3503.71 L 4057.19 3503.35 L 4057.02 3502.82 L 4056.66 3502.46 L 4056.3 3502.28 L 4055.76 3502.28 M 4058.38 3502.28 L 4058.38 3504.79 M 4058.38 3503 L 4058.91 3502.46 L 4059.27 3502.28 L 4059.81 3502.28 L 4060.16 3502.46 L 4060.34 3503 L 4060.34 3504.79 M 4064.28 3501.03 L 4064.28 3504.79 M 4064.28 3501.03 L 4065.89 3501.03 L 4066.43 3501.21 L 4066.61 3501.39 L 4066.79 3501.74 L 4066.79 3502.1 L 4066.61 3502.46 L 4066.43 3502.64 L 4065.89 3502.82 M 4064.28 3502.82 L 4065.89 3502.82 L 4066.43 3503 L 4066.61 3503.17 L 4066.79 3503.53 L 4066.79 3504.07 L 4066.61 3504.43 L 4066.43 3504.61 L 4065.89 3504.79 L 4064.28 3504.79 M 4067.97 3502.28 L 4067.97 3504.07 L 4068.15 3504.61 L 4068.5 3504.79 L 4069.04 3504.79 L 4069.4 3504.61 L 4069.94 3504.07 M 4069.94 3502.28 L 4069.94 3504.79 M 4072.55 3501.03 L 4072.19 3501.03 L 4071.83 3501.21 L 4071.65 3501.74 L 4071.65 3504.79 M 4071.12 3502.28 L 4072.37 3502.28 M 4075.16 3501.03 L 4074.8 3501.03 L 4074.45 3501.21 L 4074.27 3501.74 L 4074.27 3504.79 M 4073.73 3502.28 L 4074.98 3502.28 M 4076.34 3503.35 L 4078.49 3503.35 L 4078.49 3503 L 4078.31 3502.64 L 4078.13 3502.46 L 4077.77 3502.28 L 4077.24 3502.28 L 4076.88 3502.46 L 4076.52 3502.82 L 4076.34 3503.35 L 4076.34 3503.71 L 4076.52 3504.25 L 4076.88 3504.61 L 4077.24 3504.79 L 4077.77 3504.79 L 4078.13 3504.61 L 4078.49 3504.25 M 4079.67 3502.28 L 4079.67 3504.79 M 4079.67 3503.35 L 4079.85 3502.82 L 4080.21 3502.46 L 4080.57 3502.28 L 4081.1 3502.28" fill="none"  stroke-width="0.7874"  /></g><g c_partid="part_pcbtext" c_etype="pinpart" c_origin="4050,3512" c_rotation="0" c_mirror="0" id="gge512" locked="0" layerid="3" c_shapetype="group" ><path c_fontsize="3.937" c_fontfamily="" c_text="Pierre Guichard" d="M 4050 3508.03 L 4050 3511.79 M 4050 3508.03 L 4051.61 3508.03 L 4052.15 3508.21 L 4052.33 3508.39 L 4052.51 3508.74 L 4052.51 3509.28 L 4052.33 3509.64 L 4052.15 3509.82 L 4051.61 3510 L 4050 3510 M 4053.69 3508.03 L 4053.87 3508.21 L 4054.04 3508.03 L 4053.87 3507.85 L 4053.69 3508.03 M 4053.87 3509.28 L 4053.87 3511.79 M 4055.23 3510.35 L 4057.37 3510.35 L 4057.37 3510 L 4057.19 3509.64 L 4057.02 3509.46 L 4056.66 3509.28 L 4056.12 3509.28 L 4055.76 3509.46 L 4055.4 3509.82 L 4055.23 3510.35 L 4055.23 3510.71 L 4055.4 3511.25 L 4055.76 3511.61 L 4056.12 3511.79 L 4056.66 3511.79 L 4057.02 3511.61 L 4057.37 3511.25 M 4058.55 3509.28 L 4058.55 3511.79 M 4058.55 3510.35 L 4058.73 3509.82 L 4059.09 3509.46 L 4059.45 3509.28 L 4059.99 3509.28 M 4061.17 3509.28 L 4061.17 3511.79 M 4061.17 3510.35 L 4061.35 3509.82 L 4061.7 3509.46 L 4062.06 3509.28 L 4062.6 3509.28 M 4063.78 3510.35 L 4065.93 3510.35 L 4065.93 3510 L 4065.75 3509.64 L 4065.57 3509.46 L 4065.21 3509.28 L 4064.67 3509.28 L 4064.32 3509.46 L 4063.96 3509.82 L 4063.78 3510.35 L 4063.78 3510.71 L 4063.96 3511.25 L 4064.32 3511.61 L 4064.67 3511.79 L 4065.21 3511.79 L 4065.57 3511.61 L 4065.93 3511.25 M 4072.55 3508.92 L 4072.37 3508.56 L 4072.01 3508.21 L 4071.65 3508.03 L 4070.94 3508.03 L 4070.58 3508.21 L 4070.22 3508.56 L 4070.04 3508.92 L 4069.86 3509.46 L 4069.86 3510.35 L 4070.04 3510.89 L 4070.22 3511.25 L 4070.58 3511.61 L 4070.94 3511.79 L 4071.65 3511.79 L 4072.01 3511.61 L 4072.37 3511.25 L 4072.55 3510.89 L 4072.55 3510.35 M 4071.65 3510.35 L 4072.55 3510.35 M 4073.73 3509.28 L 4073.73 3511.07 L 4073.91 3511.61 L 4074.27 3511.79 L 4074.8 3511.79 L 4075.16 3511.61 L 4075.7 3511.07 M 4075.7 3509.28 L 4075.7 3511.79 M 4076.88 3508.03 L 4077.06 3508.21 L 4077.24 3508.03 L 4077.06 3507.85 L 4076.88 3508.03 M 4077.06 3509.28 L 4077.06 3511.79 M 4080.57 3509.82 L 4080.21 3509.46 L 4079.85 3509.28 L 4079.31 3509.28 L 4078.95 3509.46 L 4078.6 3509.82 L 4078.42 3510.35 L 4078.42 3510.71 L 4078.6 3511.25 L 4078.95 3511.61 L 4079.31 3511.79 L 4079.85 3511.79 L 4080.21 3511.61 L 4080.57 3511.25 M 4081.75 3508.03 L 4081.75 3511.79 M 4081.75 3510 L 4082.28 3509.46 L 4082.64 3509.28 L 4083.18 3509.28 L 4083.54 3509.46 L 4083.72 3510 L 4083.72 3511.79 M 4087.04 3509.28 L 4087.04 3511.79 M 4087.04 3509.82 L 4086.69 3509.46 L 4086.33 3509.28 L 4085.79 3509.28 L 4085.43 3509.46 L 4085.08 3509.82 L 4084.9 3510.35 L 4084.9 3510.71 L 4085.08 3511.25 L 4085.43 3511.61 L 4085.79 3511.79 L 4086.33 3511.79 L 4086.69 3511.61 L 4087.04 3511.25 M 4088.22 3509.28 L 4088.22 3511.79 M 4088.22 3510.35 L 4088.4 3509.82 L 4088.76 3509.46 L 4089.12 3509.28 L 4089.66 3509.28 M 4092.98 3508.03 L 4092.98 3511.79 M 4092.98 3509.82 L 4092.63 3509.46 L 4092.27 3509.28 L 4091.73 3509.28 L 4091.37 3509.46 L 4091.02 3509.82 L 4090.84 3510.35 L 4090.84 3510.71 L 4091.02 3511.25 L 4091.37 3511.61 L 4091.73 3511.79 L 4092.27 3511.79 L 4092.63 3511.61 L 4092.98 3511.25" fill="none"  stroke-width="0.7874"  /></g><g c_partid="part_pcbtext" c_etype="pinpart" c_origin="4096.5,3512" c_rotation="0" c_mirror="0" id="gge520" locked="0" layerid="3" c_shapetype="group" ><path c_fontsize="3.937" c_fontfamily="" c_text="2022" d="M 4096.68 3508.92 L 4096.68 3508.74 L 4096.86 3508.39 L 4097.04 3508.21 L 4097.39 3508.03 L 4098.11 3508.03 L 4098.47 3508.21 L 4098.65 3508.39 L 4098.83 3508.74 L 4098.83 3509.1 L 4098.65 3509.46 L 4098.29 3510 L 4096.5 3511.79 L 4099.01 3511.79 M 4101.26 3508.03 L 4100.72 3508.21 L 4100.37 3508.74 L 4100.19 3509.64 L 4100.19 3510.17 L 4100.37 3511.07 L 4100.72 3511.61 L 4101.26 3511.79 L 4101.62 3511.79 L 4102.15 3511.61 L 4102.51 3511.07 L 4102.69 3510.17 L 4102.69 3509.64 L 4102.51 3508.74 L 4102.15 3508.21 L 4101.62 3508.03 L 4101.26 3508.03 M 4104.05 3508.92 L 4104.05 3508.74 L 4104.23 3508.39 L 4104.41 3508.21 L 4104.77 3508.03 L 4105.48 3508.03 L 4105.84 3508.21 L 4106.02 3508.39 L 4106.2 3508.74 L 4106.2 3509.1 L 4106.02 3509.46 L 4105.66 3510 L 4103.87 3511.79 L 4106.38 3511.79 M 4107.74 3508.92 L 4107.74 3508.74 L 4107.92 3508.39 L 4108.1 3508.21 L 4108.45 3508.03 L 4109.17 3508.03 L 4109.53 3508.21 L 4109.71 3508.39 L 4109.89 3508.74 L 4109.89 3509.1 L 4109.71 3509.46 L 4109.35 3510 L 4107.56 3511.79 L 4110.06 3511.79" fill="none"  stroke-width="0.7874"  /></g><g c_partid="part_pcbtext" c_etype="pinpart" c_origin="4200.5,3510" c_rotation="0" c_mirror="0" id="gge571" locked="0" layerid="3" c_shapetype="group" ><path c_fontsize="11.811" c_fontfamily="" c_text="K" d="M 4200.5 3498.08 L 4200.5 3509.36 M 4208.02 3498.08 L 4200.5 3505.6 M 4203.18 3502.91 L 4208.02 3509.36" fill="none"  stroke-width="0.7874"  /></g><g c_partid="part_pcbtext" c_etype="" c_origin="4154.5,3505" c_rotation="90" c_mirror="0" id="gge578" locked="0" layerid="3" c_shapetype="group" ><path c_fontsize="4.5" c_fontfamily="" c_text="47uF" d="M 4149.96 3502.95 L 4152.82 3505 L 4152.82 3501.93 M 4149.96 3502.95 L 4154.25 3502.95 M 4149.96 3497.72 L 4154.25 3499.76 M 4149.96 3500.58 L 4149.96 3497.72 M 4151.39 3496.37 L 4153.44 3496.37 L 4154.05 3496.16 L 4154.25 3495.75 L 4154.25 3495.14 L 4154.05 3494.73 L 4153.44 3494.12 M 4151.39 3494.12 L 4154.25 3494.12 M 4149.96 3492.77 L 4154.25 3492.77 M 4149.96 3492.77 L 4149.96 3490.11 M 4152 3492.77 L 4152 3491.13" fill="none"  stroke-width="0.6" c_note="note_name" /></g><g c_partid="part_pcbtext" c_etype="" c_origin="4154.562,3500.051" c_rotation="90" c_mirror="0" id="gge580" locked="0" layerid="3" c_shapetype="group" display="none"><path c_fontsize="4.5" c_fontfamily="" c_text="1" d="M 4150.8408 3500.0522L4150.6308 3499.6422 L4150.0208 3499.0322 L4154.3208 3499.0322 " fill="none"  stroke-width="0.6" c_note="note_pre" /></g><g c_partid="part_pcbtext" c_etype="" c_origin="4174.5,3457.5" c_rotation="90" c_mirror="0" id="gge231" locked="0" layerid="3" c_shapetype="group" ><path c_fontsize="4.5" c_fontfamily="" c_text="TL072" d="M 4169.96 3456.07L4174.25 3456.07 M 4169.96 3457.5L4169.96 3454.64 M 4169.96 3453.29L4174.25 3453.29 M 4174.25 3453.29L4174.25 3450.83 M 4169.96 3448.25L4170.16 3448.87 L4170.78 3449.28 L4171.8 3449.48 L4172.41 3449.48 L4173.44 3449.28 L4174.05 3448.87 L4174.25 3448.25 L4174.25 3447.85 L4174.05 3447.23 L4173.44 3446.82 L4172.41 3446.62 L4171.8 3446.62 L4170.78 3446.82 L4170.16 3447.23 L4169.96 3447.85 L4169.96 3448.25 M 4169.96 3442.4L4174.25 3444.45 M 4169.96 3445.27L4169.96 3442.4 M 4170.98 3440.85L4170.78 3440.85 L4170.37 3440.65 L4170.16 3440.44 L4169.96 3440.03 L4169.96 3439.21 L4170.16 3438.8 L4170.37 3438.6 L4170.78 3438.4 L4171.19 3438.4 L4171.6 3438.6 L4172.21 3439.01 L4174.25 3441.05 L4174.25 3438.19 " fill="none"  stroke-width="0.6" c_note="note_name" /></g><g c_partid="part_pcbtext" c_etype="" c_origin="4170,3441" c_rotation="270" c_mirror="0" id="gge233" locked="0" layerid="3" c_shapetype="group" display="none"><path c_fontsize="4.5" c_fontfamily="" c_text="U1" d="M 4174.54 3441L4171.47 3441 L4170.86 3441.2 L4170.45 3441.61 L4170.25 3442.23 L4170.25 3442.64 L4170.45 3443.25 L4170.86 3443.66 L4171.47 3443.86 L4174.54 3443.86 M 4173.72 3445.21L4173.93 3445.62 L4174.54 3446.24 L4170.25 3446.24 " fill="none"  stroke-width="0.6" c_note="note_pre" /></g><g c_partid="part_pcbtext" c_etype="" c_origin="4110.5,3460" c_rotation="90" c_mirror="0" id="gge3" locked="0" layerid="3" c_shapetype="group" ><path c_fontsize="4.5" c_fontfamily="" c_text="100nF" d="M 4106.78 3460 L 4106.57 3459.59 L 4105.96 3458.98 L 4110.25 3458.98 M 4105.96 3456.4 L 4106.16 3457.01 L 4106.78 3457.42 L 4107.8 3457.63 L 4108.41 3457.63 L 4109.44 3457.42 L 4110.05 3457.01 L 4110.25 3456.4 L 4110.25 3455.99 L 4110.05 3455.38 L 4109.44 3454.97 L 4108.41 3454.76 L 4107.8 3454.76 L 4106.78 3454.97 L 4106.16 3455.38 L 4105.96 3455.99 L 4105.96 3456.4 M 4105.96 3452.19 L 4106.16 3452.8 L 4106.78 3453.21 L 4107.8 3453.41 L 4108.41 3453.41 L 4109.44 3453.21 L 4110.05 3452.8 L 4110.25 3452.19 L 4110.25 3451.78 L 4110.05 3451.16 L 4109.44 3450.75 L 4108.41 3450.55 L 4107.8 3450.55 L 4106.78 3450.75 L 4106.16 3451.16 L 4105.96 3451.78 L 4105.96 3452.19 M 4107.39 3449.2 L 4110.25 3449.2 M 4108.21 3449.2 L 4107.6 3448.59 L 4107.39 3448.18 L 4107.39 3447.56 L 4107.6 3447.15 L 4108.21 3446.95 L 4110.25 3446.95 M 4105.96 3445.6 L 4110.25 3445.6 M 4105.96 3445.6 L 4105.96 3442.94 M 4108 3445.6 L 4108 3443.96" fill="none"  stroke-width="0.6" c_note="note_name" /></g><g c_partid="part_pcbtext" c_etype="" c_origin="4124,3450.5" c_rotation="270" c_mirror="0" id="gge5" locked="0" layerid="3" c_shapetype="group" display="none"><path c_fontsize="4.5" c_fontfamily="" c_text="C1" d="M 4127.52 3453.57 L 4127.93 3453.36 L 4128.34 3452.95 L 4128.54 3452.55 L 4128.54 3451.73 L 4128.34 3451.32 L 4127.93 3450.91 L 4127.52 3450.7 L 4126.9 3450.5 L 4125.88 3450.5 L 4125.27 3450.7 L 4124.86 3450.91 L 4124.45 3451.32 L 4124.25 3451.73 L 4124.25 3452.55 L 4124.45 3452.95 L 4124.86 3453.36 L 4125.27 3453.57 M 4127.72 3454.92 L 4127.93 3455.33 L 4128.54 3455.94 L 4124.25 3455.94" fill="none"  stroke-width="0.6" c_note="note_pre" /></g><g c_partid="part_pcbtext" c_etype="" c_origin="4056.5,3446.5" c_rotation="90" c_mirror="0" id="gge37" locked="0" layerid="3" c_shapetype="group" ><path c_fontsize="4.5" c_fontfamily="" c_text="1uF" d="M 4052.78 3446.5 L 4052.57 3446.09 L 4051.96 3445.48 L 4056.25 3445.48 M 4053.39 3444.13 L 4055.44 3444.13 L 4056.05 3443.92 L 4056.25 3443.51 L 4056.25 3442.9 L 4056.05 3442.49 L 4055.44 3441.88 M 4053.39 3441.88 L 4056.25 3441.88 M 4051.96 3440.53 L 4056.25 3440.53 M 4051.96 3440.53 L 4051.96 3437.87 M 4054 3440.53 L 4054 3438.89" fill="none"  stroke-width="0.6" c_note="note_name" /></g><g c_partid="part_pcbtext" c_etype="" c_origin="4077.5,3441.463" c_rotation="270" c_mirror="0" id="gge39" locked="0" layerid="3" c_shapetype="group" display="none"><path c_fontsize="4.5" c_fontfamily="" c_text="C2" d="M 4081.02 3444.5325 L 4081.43 3444.3225 L 4081.84 3443.9125 L 4082.04 3443.5125 L 4082.04 3442.6925 L 4081.84 3442.2825 L 4081.43 3441.8725 L 4081.02 3441.6625 L 4080.4 3441.4625 L 4079.38 3441.4625 L 4078.77 3441.6625 L 4078.36 3441.8725 L 4077.95 3442.2825 L 4077.75 3442.6925 L 4077.75 3443.5125 L 4077.95 3443.9125 L 4078.36 3444.3225 L 4078.77 3444.5325 M 4081.02 3446.0825 L 4081.22 3446.0825 L 4081.63 3446.2925 L 4081.84 3446.4925 L 4082.04 3446.9025 L 4082.04 3447.7225 L 4081.84 3448.1325 L 4081.63 3448.3325 L 4081.22 3448.5425 L 4080.81 3448.5425 L 4080.4 3448.3325 L 4079.79 3447.9225 L 4077.75 3445.8825 L 4077.75 3448.7425" fill="none"  stroke-width="0.6" c_note="note_pre" /></g><g c_partid="part_pcbtext" c_etype="" c_origin="4039.5,3494" c_rotation="90" c_mirror="0" id="gge101" locked="0" layerid="3" c_shapetype="group" ><path c_fontsize="4.5" c_fontfamily="" c_text="100K" d="M 4035.78 3494 L 4035.57 3493.59 L 4034.96 3492.98 L 4039.25 3492.98 M 4034.96 3490.4 L 4035.16 3491.01 L 4035.78 3491.42 L 4036.8 3491.63 L 4037.41 3491.63 L 4038.44 3491.42 L 4039.05 3491.01 L 4039.25 3490.4 L 4039.25 3489.99 L 4039.05 3489.38 L 4038.44 3488.97 L 4037.41 3488.76 L 4036.8 3488.76 L 4035.78 3488.97 L 4035.16 3489.38 L 4034.96 3489.99 L 4034.96 3490.4 M 4034.96 3486.19 L 4035.16 3486.8 L 4035.78 3487.21 L 4036.8 3487.41 L 4037.41 3487.41 L 4038.44 3487.21 L 4039.05 3486.8 L 4039.25 3486.19 L 4039.25 3485.78 L 4039.05 3485.16 L 4038.44 3484.75 L 4037.41 3484.55 L 4036.8 3484.55 L 4035.78 3484.75 L 4035.16 3485.16 L 4034.96 3485.78 L 4034.96 3486.19 M 4034.96 3483.2 L 4039.25 3483.2 M 4034.96 3480.34 L 4037.82 3483.2 M 4036.8 3482.18 L 4039.25 3480.34" fill="none"  stroke-width="0.6" c_note="note_name" /></g><g c_partid="part_pcbtext" c_etype="" c_origin="4051.5,3488" c_rotation="270" c_mirror="0" id="gge103" locked="0" layerid="3" c_shapetype="group" display="none"><path c_fontsize="4.5" c_fontfamily="" c_text="R1" d="M 4056.04 3488 L 4051.75 3488 M 4056.04 3488 L 4056.04 3489.84 L 4055.84 3490.45 L 4055.63 3490.66 L 4055.22 3490.86 L 4054.81 3490.86 L 4054.4 3490.66 L 4054.2 3490.45 L 4054 3489.84 L 4054 3488 M 4054 3489.43 L 4051.75 3490.86 M 4055.22 3492.21 L 4055.43 3492.62 L 4056.04 3493.24 L 4051.75 3493.24" fill="none"  stroke-width="0.6" c_note="note_pre" /></g><g c_partid="part_pcbtext" c_etype="" c_origin="4201.5,3468.5" c_rotation="90" c_mirror="0" id="gge127" locked="0" layerid="3" c_shapetype="group" ><path c_fontsize="4.5" c_fontfamily="" c_text="100K" d="M 4197.78 3468.5 L 4197.57 3468.09 L 4196.96 3467.48 L 4201.25 3467.48 M 4196.96 3464.9 L 4197.16 3465.51 L 4197.78 3465.92 L 4198.8 3466.13 L 4199.41 3466.13 L 4200.44 3465.92 L 4201.05 3465.51 L 4201.25 3464.9 L 4201.25 3464.49 L 4201.05 3463.88 L 4200.44 3463.47 L 4199.41 3463.26 L 4198.8 3463.26 L 4197.78 3463.47 L 4197.16 3463.88 L 4196.96 3464.49 L 4196.96 3464.9 M 4196.96 3460.69 L 4197.16 3461.3 L 4197.78 3461.71 L 4198.8 3461.91 L 4199.41 3461.91 L 4200.44 3461.71 L 4201.05 3461.3 L 4201.25 3460.69 L 4201.25 3460.28 L 4201.05 3459.66 L 4200.44 3459.25 L 4199.41 3459.05 L 4198.8 3459.05 L 4197.78 3459.25 L 4197.16 3459.66 L 4196.96 3460.28 L 4196.96 3460.69 M 4196.96 3457.7 L 4201.25 3457.7 M 4196.96 3454.84 L 4199.82 3457.7 M 4198.8 3456.68 L 4201.25 3454.84" fill="none"  stroke-width="0.6" c_note="note_name" /></g><g c_partid="part_pcbtext" c_etype="" c_origin="4196.5,3461" c_rotation="270" c_mirror="0" id="gge129" locked="0" layerid="3" c_shapetype="group" display="none"><path c_fontsize="4.5" c_fontfamily="" c_text="R2" d="M 4201.04 3461 L 4196.75 3461 M 4201.04 3461 L 4201.04 3462.84 L 4200.84 3463.45 L 4200.63 3463.66 L 4200.22 3463.86 L 4199.81 3463.86 L 4199.4 3463.66 L 4199.2 3463.45 L 4199 3462.84 L 4199 3461 M 4199 3462.43 L 4196.75 3463.86 M 4200.02 3465.42 L 4200.22 3465.42 L 4200.63 3465.62 L 4200.84 3465.83 L 4201.04 3466.24 L 4201.04 3467.05 L 4200.84 3467.46 L 4200.63 3467.67 L 4200.22 3467.87 L 4199.81 3467.87 L 4199.4 3467.67 L 4198.79 3467.26 L 4196.75 3465.21 L 4196.75 3468.08" fill="none"  stroke-width="0.6" c_note="note_pre" /></g><g c_partid="part_pcbtext" c_etype="" c_origin="4069,3495.5" c_rotation="90" c_mirror="0" id="gge153" locked="0" layerid="3" c_shapetype="group" ><path c_fontsize="4.5" c_fontfamily="" c_text="100K" d="M 4065.28 3495.5 L 4065.07 3495.09 L 4064.46 3494.48 L 4068.75 3494.48 M 4064.46 3491.9 L 4064.66 3492.51 L 4065.28 3492.92 L 4066.3 3493.13 L 4066.91 3493.13 L 4067.94 3492.92 L 4068.55 3492.51 L 4068.75 3491.9 L 4068.75 3491.49 L 4068.55 3490.88 L 4067.94 3490.47 L 4066.91 3490.26 L 4066.3 3490.26 L 4065.28 3490.47 L 4064.66 3490.88 L 4064.46 3491.49 L 4064.46 3491.9 M 4064.46 3487.69 L 4064.66 3488.3 L 4065.28 3488.71 L 4066.3 3488.91 L 4066.91 3488.91 L 4067.94 3488.71 L 4068.55 3488.3 L 4068.75 3487.69 L 4068.75 3487.28 L 4068.55 3486.66 L 4067.94 3486.25 L 4066.91 3486.05 L 4066.3 3486.05 L 4065.28 3486.25 L 4064.66 3486.66 L 4064.46 3487.28 L 4064.46 3487.69 M 4064.46 3484.7 L 4068.75 3484.7 M 4064.46 3481.84 L 4067.32 3484.7 M 4066.3 3483.68 L 4068.75 3481.84" fill="none"  stroke-width="0.6" c_note="note_name" /></g><g c_partid="part_pcbtext" c_etype="" c_origin="4081,3488" c_rotation="270" c_mirror="0" id="gge155" locked="0" layerid="3" c_shapetype="group" display="none"><path c_fontsize="4.5" c_fontfamily="" c_text="R3" d="M 4085.54 3488 L 4081.25 3488 M 4085.54 3488 L 4085.54 3489.84 L 4085.34 3490.45 L 4085.13 3490.66 L 4084.72 3490.86 L 4084.31 3490.86 L 4083.9 3490.66 L 4083.7 3490.45 L 4083.5 3489.84 L 4083.5 3488 M 4083.5 3489.43 L 4081.25 3490.86 M 4085.54 3492.62 L 4085.54 3494.87 L 4083.9 3493.65 L 4083.9 3494.26 L 4083.7 3494.67 L 4083.5 3494.87 L 4082.88 3495.08 L 4082.47 3495.08 L 4081.86 3494.87 L 4081.45 3494.46 L 4081.25 3493.85 L 4081.25 3493.24 L 4081.45 3492.62 L 4081.65 3492.42 L 4082.06 3492.21" fill="none"  stroke-width="0.6" c_note="note_pre" /></g><g c_partid="part_pcbtext" c_etype="" c_origin="4100,3493.5" c_rotation="90" c_mirror="0" id="gge179" locked="0" layerid="3" c_shapetype="group" ><path c_fontsize="4.5" c_fontfamily="" c_text="560" d="M 4095.46 3491.05 L 4095.46 3493.09 L 4097.3 3493.3 L 4097.1 3493.09 L 4096.89 3492.48 L 4096.89 3491.86 L 4097.1 3491.25 L 4097.5 3490.84 L 4098.12 3490.64 L 4098.53 3490.64 L 4099.14 3490.84 L 4099.55 3491.25 L 4099.75 3491.86 L 4099.75 3492.48 L 4099.55 3493.09 L 4099.35 3493.3 L 4098.94 3493.5 M 4096.07 3486.83 L 4095.66 3487.04 L 4095.46 3487.65 L 4095.46 3488.06 L 4095.66 3488.67 L 4096.28 3489.08 L 4097.3 3489.29 L 4098.32 3489.29 L 4099.14 3489.08 L 4099.55 3488.67 L 4099.75 3488.06 L 4099.75 3487.85 L 4099.55 3487.24 L 4099.14 3486.83 L 4098.53 3486.63 L 4098.32 3486.63 L 4097.71 3486.83 L 4097.3 3487.24 L 4097.1 3487.85 L 4097.1 3488.06 L 4097.3 3488.67 L 4097.71 3489.08 L 4098.32 3489.29 M 4095.46 3484.05 L 4095.66 3484.66 L 4096.28 3485.07 L 4097.3 3485.28 L 4097.91 3485.28 L 4098.94 3485.07 L 4099.55 3484.66 L 4099.75 3484.05 L 4099.75 3483.64 L 4099.55 3483.03 L 4098.94 3482.62 L 4097.91 3482.41 L 4097.3 3482.41 L 4096.28 3482.62 L 4095.66 3483.03 L 4095.46 3483.64 L 4095.46 3484.05" fill="none"  stroke-width="0.6" c_note="note_name" /></g><g c_partid="part_pcbtext" c_etype="" c_origin="4100,3489" c_rotation="90" c_mirror="0" id="gge181" locked="0" layerid="3" c_shapetype="group" display="none"><path c_fontsize="4.5" c_fontfamily="" c_text="R4" d="M 4095.46 3489 L 4099.75 3489 M 4095.46 3489 L 4095.46 3487.16 L 4095.66 3486.55 L 4095.87 3486.34 L 4096.28 3486.14 L 4096.69 3486.14 L 4097.1 3486.34 L 4097.3 3486.55 L 4097.5 3487.16 L 4097.5 3489 M 4097.5 3487.57 L 4099.75 3486.14 M 4095.46 3482.74 L 4098.32 3484.79 L 4098.32 3481.72 M 4095.46 3482.74 L 4099.75 3482.74" fill="none"  stroke-width="0.6" c_note="note_pre" /></g><g c_partid="part_pcbtext" c_etype="" c_origin="4127,3491.5" c_rotation="90" c_mirror="0" id="gge205" locked="0" layerid="3" c_shapetype="group" ><path c_fontsize="4.5" c_fontfamily="" c_text="1M" d="M 4123.28 3491.5 L 4123.07 3491.09 L 4122.46 3490.48 L 4126.75 3490.48 M 4122.46 3489.13 L 4126.75 3489.13 M 4122.46 3489.13 L 4126.75 3487.49 M 4122.46 3485.85 L 4126.75 3487.49 M 4122.46 3485.85 L 4126.75 3485.85" fill="none"  stroke-width="0.6" c_note="note_name" /></g><g c_partid="part_pcbtext" c_etype="" c_origin="4127.5,3488.5" c_rotation="90" c_mirror="0" id="gge207" locked="0" layerid="3" c_shapetype="group" display="none"><path c_fontsize="4.5" c_fontfamily="" c_text="R5" d="M 4122.96 3488.5 L 4127.25 3488.5 M 4122.96 3488.5 L 4122.96 3486.66 L 4123.16 3486.05 L 4123.37 3485.84 L 4123.78 3485.64 L 4124.19 3485.64 L 4124.6 3485.84 L 4124.8 3486.05 L 4125 3486.66 L 4125 3488.5 M 4125 3487.07 L 4127.25 3485.64 M 4122.96 3481.83 L 4122.96 3483.88 L 4124.8 3484.08 L 4124.6 3483.88 L 4124.39 3483.26 L 4124.39 3482.65 L 4124.6 3482.04 L 4125 3481.63 L 4125.62 3481.42 L 4126.03 3481.42 L 4126.64 3481.63 L 4127.05 3482.04 L 4127.25 3482.65 L 4127.25 3483.26 L 4127.05 3483.88 L 4126.85 3484.08 L 4126.44 3484.29" fill="none"  stroke-width="0.6" c_note="note_pre" /></g><path d="M 4151.1395 3432.1575 A 2.8648 2.8648 0 0 0 4156.8594 3432.1768" locked="0"  fill="none" stroke-width="1" c_helper_type="arc2" net="S$1126" layerid="3" id="gge633" /><path d="M 4113.6984 3460.9929 A 0.6 0.6 0 0 0 4114.2984 3461.5929" locked="0"  fill="none" stroke-width="0.6" c_helper_type="arc2" net="" layerid="3" id="gge13" /><path d="M 4121.7016 3461.5929 A 0.6 0.6 0 0 0 4122.3016 3460.9929" locked="0"  fill="none" stroke-width="0.6" c_helper_type="arc2" net="" layerid="3" id="gge14" /><path d="M 4113.6984 3442.0071 A 0.6 0.6 0 0 1 4114.2984 3441.4071" locked="0"  fill="none" stroke-width="0.6" c_helper_type="arc2" net="" layerid="3" id="gge15" /><path d="M 4121.7016 3441.4071 A 0.6 0.6 0 0 1 4122.3016 3442.0071" locked="0"  fill="none" stroke-width="0.6" c_helper_type="arc2" net="" layerid="3" id="gge16" /><circle cx="4143.5" cy="3432" r="0.591" stroke-width="1.1811" fill="none" layerid="3" id="gge632" locked="0"  /><path d="M 4172.878 3511.0433 L 4178.0748 3511.0433 L 4178.0748 3510.2638 L 4172.878 3510.2638 Z" stroke-width="0"   net="" type="solid" layerid="3" id="gge589" locked="0" c_teardrop="" c_targetpad="" c_targetwire="" /><path d="M 4175.0866 3512.2126 L 4175.8661 3512.2126 L 4175.8661 3509.0945 L 4175.0866 3509.0945 Z" stroke-width="0"   net="" type="solid" layerid="3" id="gge590" locked="0" c_teardrop="" c_targetpad="" c_targetwire="" /><path d="M 4175.0866 3487.7874 L 4175.8661 3487.7874 L 4175.8661 3490.9055 L 4175.0866 3490.9055 Z" stroke-width="0"   net="" type="solid" layerid="3" id="gge591" locked="0" c_teardrop="" c_targetpad="" c_targetwire="" /><path d="M 4064.9194 3434.8427 L 4061.5336 3434.8427 L 4061.5336 3435.3506 L 4064.9194 3435.3506 Z" stroke-width="0"   net="" type="solid" layerid="3" id="gge51" locked="0" c_teardrop="" c_targetpad="" c_targetwire="" /><path d="M 4063.5808 3434.0946 L 4063.073 3434.0946 L 4063.073 3436.1261 L 4063.5808 3436.1261 Z" stroke-width="0"   net="" type="solid" layerid="3" id="gge52" locked="0" c_teardrop="" c_targetpad="" c_targetwire="" /><path d="M 4063.7598 3449.9921 L 4063.252 3449.9921 L 4063.252 3447.9606 L 4063.7598 3447.9606 Z" stroke-width="0"   net="" type="solid" layerid="3" id="gge53" locked="0" c_teardrop="" c_targetpad="" c_targetwire="" /><polyline points="4030.5 3418 4031.5 3418 4210.5 3418 4210.5 3528 4030.5 3528 4030.5 3418 4030.5 3418" stroke-width="1"  stroke-linecap="round" fill="none" layerid="10" net="" id="gge549" locked="0" /></svg>